<svg width="26" height="26" fill="none" xmlns="http://www.w3.org/2000/svg"><path d="M18.967 8.318c-.542-.591-1.384-1.39-1.743.413-.122.613-.406 1.086-.65 1.466-.263-1.33-1.055-2.709-1.8-3.638-.28-.347-1.27-1.729-1.46-4.04a.416.416 0 0 0-.694-.274c-2.45 2.223-3.793 5.281-3.843 8.724 0 0-1.02-.86-1.574-2.46-.15-.43-.727-.512-.977-.131a3.827 3.827 0 0 0-.133.217c-1.89 3.341-2.8 7.4-1.959 11.174 1.405 6.322 10.7 8.09 15.62 4.116 4.815-3.887 3.285-11.123-.787-15.567Z" fill="#ED694A"/><path d="M5.442 20.166c-.83-3.815.049-7.912 1.894-11.306a6.297 6.297 0 0 1-.133-.35c-.15-.43-.727-.513-.977-.132a3.829 3.829 0 0 0-.133.217c-1.89 3.342-2.799 7.4-1.959 11.174.641 2.884 2.924 4.82 5.684 5.695-2.153-1.043-3.84-2.83-4.376-5.298ZM10.091 10.905c.102-3.124 1.232-5.926 3.255-8.078a9.034 9.034 0 0 1-.031-.305c-.029-.348-.424-.522-.679-.292-2.366 2.14-3.808 5.166-3.86 8.739l.444.343c.218.17.513.162.721.007.124-.105.142-.264.15-.414Z" fill="#D8553A"/><path d="M17.481 12.94c-.4-.437-1.022-1.027-1.287.305-.09.453-.3.802-.48 1.083-.195-.983-.78-2.001-1.33-2.687-.206-.257-.937-1.277-1.078-2.985a.307.307 0 0 0-.512-.202c-1.81 1.642-2.803 3.9-2.84 6.443 0 0-.753-.635-1.162-1.816-.11-.318-.537-.379-.722-.097a2.84 2.84 0 0 0-.098.16c-1.396 2.468-2.067 5.465-1.446 8.254 1.038 4.67 7.903 5.975 11.537 3.04 3.556-2.871 2.426-8.216-.582-11.498Z" fill="#F4A32C"/><path d="M7.82 21.764c-.55-2.726.02-5.65 1.226-8.086a4.69 4.69 0 0 1-.254-.597c-.11-.318-.537-.379-.722-.097a2.801 2.801 0 0 0-.098.16c-1.396 2.468-2.067 5.466-1.447 8.254.483 2.172 2.227 3.615 4.319 4.244-1.487-.746-2.657-2.056-3.024-3.878Z" fill="#E89528"/><path d="M16.125 17.16c-.271-.297-.692-.696-.871.206-.061.306-.204.542-.326.733-.131-.666-.527-1.355-.9-1.82-.14-.173-.634-.864-.73-2.02a.208.208 0 0 0-.347-.137c-1.224 1.112-1.896 2.641-1.921 4.362 0 0-.51-.43-.787-1.23-.075-.215-.364-.256-.489-.065a1.923 1.923 0 0 0-.066.108c-.945 1.671-1.4 3.7-.98 5.588.703 3.16 5.35 4.044 7.81 2.058a3.957 3.957 0 0 0 1.472-2.7c.16-1.606-.459-3.549-1.865-5.084Z" fill="#F4D44E"/><path d="M14.866 21.075c-.15-.165-.385-.388-.485.114-.034.171-.114.303-.181.409-.074-.37-.294-.755-.502-1.014-.078-.096-.353-.481-.406-1.125a.116.116 0 0 0-.194-.076c-.682.619-1.057 1.47-1.07 2.43 0 0-.285-.24-.439-.685-.042-.12-.202-.143-.272-.037a.983.983 0 0 0-.037.06c-.526.931-.78 2.062-.546 3.113.534 2.399 4.903 2.326 5.171-.357.09-.895-.255-1.977-1.039-2.832Z" fill="#EAE9E8"/><path d="M11.749 24.74c-.234-.94.02-1.951.545-2.784a.935.935 0 0 1 .037-.054c.07-.095.231-.075.273.033.154.398.438.612.438.612a2.776 2.776 0 0 1 .736-1.858c-.105-.145-.426-.495-.486-1.23a.116.116 0 0 0-.194-.076c-.682.619-1.057 1.47-1.07 2.43 0 0-.285-.24-.439-.685-.042-.12-.202-.143-.272-.037-.014.02-.026.04-.037.06-.526.931-.78 2.062-.546 3.114.217.974 1.107 1.56 2.091 1.701-.53-.26-.939-.673-1.076-1.226Z" fill="#F7E7A1"/><path d="M9.374 3.455a2.225 2.225 0 0 0 0-3.455 2.225 2.225 0 0 0 0 3.455ZM22.536 10.624a2.226 2.226 0 0 0 0-3.455c-.502.408-1.095 2.564 0 3.455ZM3.087 11.304a1.604 1.604 0 0 0 0-2.49c-.362.294-.79 1.848 0 2.49ZM16.794 5.946a1.604 1.604 0 0 0 0-2.49 1.604 1.604 0 0 0 0 2.49Z" fill="#D8553A"/><path d="M10.964 14.49c.182-2.146 1.001-4.054 2.377-5.509a6.721 6.721 0 0 1-.035-.325.307.307 0 0 0-.513-.202 8.555 8.555 0 0 0-2.692 4.9 9.712 9.712 0 0 0-.146 1.544c.038.007.905.452 1.01-.409Z" fill="#E89528"/><path d="M9.975 23.333c-.374-1.763-.055-3.644.684-5.273-.144-.2-.3-.47-.416-.805-.075-.215-.363-.257-.489-.066a1.929 1.929 0 0 0-.066.108c-.945 1.671-1.4 3.7-.98 5.588.33 1.48 1.524 2.46 2.953 2.881-.832-.552-1.461-1.37-1.686-2.433ZM12.378 17.714a6.338 6.338 0 0 1 1.055-2.675 4.37 4.37 0 0 1-.134-.78.208.208 0 0 0-.347-.137 5.76 5.76 0 0 0-1.622 2.51h-.001a6.455 6.455 0 0 0-.299 1.852c.685.086 1.252-.084 1.348-.77Z" fill="#E8C842"/></svg>