<svg width="121" height="40" viewBox="0 0 121 40" fill="none" xmlns="http://www.w3.org/2000/svg">
<path fill-rule="evenodd" clip-rule="evenodd" d="M15.5901 0.036751C14.7512 0.251017 13.6776 0.755117 12.3506 1.5577C2.34776 7.60743 2.67008 7.39993 1.73185 8.39637C1.14507 9.0197 0.688789 9.66141 0.416635 10.2461L0 11.1413V19.9915V28.8417L0.410348 29.7081C1.11582 31.198 2.38471 32.3724 4.94509 33.9051C6.14213 34.6217 8.39173 35.9852 9.94433 36.9352C14.662 39.8218 15.1203 40.0154 17.1941 39.9992C18.8266 39.9863 19.7733 39.6084 22.8399 37.7448C31.2598 32.6286 31.0667 32.7628 31.3273 31.8463C31.6249 30.7999 31.1644 30.1675 28.8706 28.4734C27.2002 27.2396 26.388 26.9116 25.536 27.127C25.1921 27.2139 23.4088 28.2005 21.3668 29.4336C16.7909 32.1969 17.1932 32.1558 13.9862 30.1878C13.3158 29.7763 11.8181 28.8738 10.6581 28.1821C9.39643 27.4298 8.30627 26.6748 7.94455 26.3028C7.07112 25.4042 7.03314 25.1053 7.08472 19.5304C7.13143 14.4634 7.1476 14.3473 7.91286 13.5851C8.24083 13.2584 9.8921 12.2212 14.6248 9.36928C16.1602 8.44395 16.2601 8.40448 17.0628 8.40448C17.9904 8.40448 17.5426 8.17899 22.0379 10.909C23.6707 11.9005 24.123 12.2357 24.123 12.4542C24.123 12.6626 23.8321 12.9123 22.9728 13.4414C22.3402 13.831 21.7338 14.1498 21.6253 14.1498C21.5167 14.1498 20.8205 13.7811 20.0779 13.3306C19.3355 12.8799 18.529 12.4236 18.286 12.3167C17.7054 12.0611 16.4106 12.0684 15.8106 12.3305C14.8418 12.7537 11.6142 14.7732 11.1673 15.2357C10.2439 16.1912 10.201 16.4015 10.201 19.9627C10.201 23.5208 10.2434 23.7296 11.1633 24.6896C11.607 25.1525 15.0299 27.303 15.8341 27.6241C16.5363 27.9043 17.8229 27.8385 18.5414 27.4855C19.4284 27.0497 22.6264 25.0875 22.7417 24.9082C22.9856 24.5292 22.8247 24.1443 22.2304 23.6849C21.8951 23.4258 21.5184 23.2122 21.393 23.2105C21.2678 23.2086 20.3565 23.6979 19.3681 24.2977C18.3797 24.8975 17.3851 25.4168 17.158 25.4517C16.8154 25.5041 16.406 25.3093 14.7561 24.309C12.227 22.7756 12.3186 22.9377 12.3184 19.9921C12.3181 18.4385 12.3696 17.6612 12.4932 17.3497C12.6379 16.9847 13.0096 16.7001 14.6424 15.7044C16.0994 14.8158 16.7343 14.5003 17.0657 14.5C17.3962 14.4998 17.9919 14.7927 19.3207 15.6089C21.7451 17.0981 21.6527 17.1003 24.2559 15.4939C26.9668 13.821 27.5848 13.1233 27.3117 12.0435C27.1238 11.3001 26.3998 10.7265 23.1495 8.74554C18.6115 5.97996 18.6631 6.00537 17.4635 5.93224C16.895 5.8975 16.1669 5.94157 15.8075 6.03241C15.004 6.23559 6.93716 11.1187 6.26364 11.8098C5.66955 12.4193 5.07507 13.5957 4.88991 14.5282C4.69796 15.4947 4.69796 24.4306 4.88991 25.3972C5.2234 27.0767 6.19038 28.3269 7.96893 29.3781C8.49079 29.6864 10.0726 30.6485 11.4841 31.5159C15.1344 33.7591 15.4888 33.9259 16.7509 33.9957C17.4722 34.0355 18.0094 33.9869 18.4889 33.8382C18.8706 33.7198 20.6746 32.7089 22.4978 31.5918C24.3209 30.4747 25.9045 29.5607 26.0169 29.5607C26.2316 29.5607 27.8545 30.6676 28.1038 30.984C28.5051 31.4934 28.2628 31.6893 24.0589 34.2537C18.5588 37.6089 18.5902 37.5938 17.0657 37.5918C16.0326 37.5905 15.7392 37.5377 15.141 37.2464C14.5145 36.9412 8.0413 33.0492 4.92546 31.1044C3.66695 30.3188 2.88142 29.5293 2.42757 28.594C1.81975 27.3417 1.79947 27.0622 1.79947 19.9627C1.79947 12.7313 1.81564 12.5285 2.49968 11.2044C3.20284 9.84323 3.07748 9.93273 11.1633 5.02151C13.1041 3.84271 14.9806 2.75705 15.3335 2.60889C16.228 2.23335 17.9095 2.23605 18.8125 2.61457C19.3622 2.84492 22.7593 4.8751 29.2556 8.85585C29.926 9.26668 30.7295 9.86541 31.0411 10.1865C31.3526 10.5075 31.6702 10.7696 31.7468 10.769C31.8234 10.7682 32.1892 10.5844 32.5596 10.3606C33.0948 10.0374 33.2333 9.88284 33.2333 9.60937C33.2333 9.15502 32.7303 8.47883 31.9099 7.83035C31.3558 7.39249 27.0903 4.75344 21.46 1.36506C19.5889 0.238985 19.0346 0.0577046 17.3224 0.0112015C16.5108 -0.0108335 15.7313 0.000657026 15.5901 0.036751ZM49.5292 19.9627V29.6959H53.6724C58.1589 29.6959 58.7893 29.6194 59.8863 28.9422C60.6748 28.4554 61.6674 27.3359 62.0339 26.52C62.5072 25.4657 62.6834 24.1296 62.4995 22.9879C62.2 21.1281 61.3584 19.9702 59.6997 19.1363L58.8816 18.7249L59.3535 18.1182C60.2635 16.9482 60.5141 15.6192 60.1038 14.1406C59.5337 12.0865 57.9025 10.7079 55.6241 10.3544C55.2006 10.2887 53.6561 10.2336 52.1917 10.2322L49.5292 10.2295V19.9627ZM63.9609 10.3941C63.9264 10.4894 63.913 14.8561 63.9312 20.0979L63.9645 29.6283L68.9366 29.6637L73.9088 29.699V28.0753V26.4515H70.5095H67.1102L67.0771 18.3743L67.044 10.297L65.5339 10.2589C64.3972 10.2303 64.0082 10.2637 63.9609 10.3941ZM80.1083 10.3568C78.0272 10.7053 76.5145 11.5403 74.9153 13.2235C74.0018 14.1851 73.699 14.6168 73.2095 15.6568C71.9115 18.4145 71.9157 21.5002 73.2214 24.2885C73.7266 25.3673 74.0093 25.7693 74.9886 26.8009C75.9746 27.8398 76.3421 28.1257 77.3733 28.6559C80.4161 30.2207 83.789 30.0003 86.5472 28.0566C90.0774 25.5691 91.528 21.0157 90.15 16.7476C89.1993 13.803 86.6926 11.3601 83.8159 10.5747C82.8676 10.3158 81.0061 10.2065 80.1083 10.3568ZM99.8924 10.3649C96.9247 10.8351 94.2863 12.8674 92.9605 15.7044C91.5749 18.669 91.7564 22.3837 93.4192 25.0941C94.8582 27.4398 96.9861 28.9941 99.4253 29.4815C100.154 29.6271 101.235 29.6959 102.793 29.6959H105.087L105.859 28.0737L106.631 26.4515L103.582 26.4436C101.132 26.4374 100.368 26.3904 99.6895 26.2037C96.6913 25.3791 94.696 22.1764 95.1954 18.9902C95.6239 16.2573 97.6861 14.0504 100.216 13.6181C100.673 13.5398 101.956 13.4755 103.066 13.4749L105.086 13.4739L105.562 12.4938C105.824 11.9548 106.168 11.2247 106.327 10.8716L106.617 10.2295L103.575 10.2464C101.903 10.2555 100.245 10.3089 99.8924 10.3649ZM107.655 19.9627V29.7044L109.163 29.6664L110.671 29.6283L110.735 26.8827L110.799 24.1371L112.082 25.3231C112.788 25.9755 114.14 27.2262 115.088 28.1025L116.81 29.6959H118.905C120.632 29.6959 121 29.6621 121 29.5034C121 29.3053 120.184 28.4894 116.188 24.6941C114.918 23.4874 113.885 22.4253 113.893 22.3339C113.901 22.2425 115.503 19.6417 117.454 16.5543C119.848 12.7646 121 10.8252 121 10.5851V10.2295H119.295H117.589L115.413 13.5447C114.216 15.3682 112.688 17.695 112.018 18.7155L110.799 20.571L110.735 15.434L110.671 10.297L109.163 10.2589L107.655 10.2209V19.9627ZM55.8385 13.7399C56.0977 13.8205 56.4874 14.0612 56.7046 14.275C57.0627 14.6274 57.0997 14.7413 57.0997 15.4926C57.0997 17.407 56.2493 18.1293 53.7959 18.2991L52.6087 18.3813V16.0176C52.6087 14.7177 52.6519 13.6066 52.7049 13.5485C52.8332 13.4076 55.2423 13.5548 55.8385 13.7399ZM82.5034 13.6181C84.7348 13.9995 86.6918 15.85 87.3372 18.1888C87.6161 19.1994 87.5918 21.0232 87.2865 21.9915C86.786 23.579 85.5836 25.012 84.1098 25.7773C80.4727 27.6657 76.0437 25.197 75.4171 20.9321C74.8602 17.1421 77.6354 13.6619 81.351 13.4906C81.5274 13.4825 82.046 13.5398 82.5034 13.6181ZM36.9824 19.9289L37.0186 21.5173L40.8359 21.5531L44.6532 21.5889V19.9647V18.3405H40.7997H36.9463L36.9824 19.9289ZM58.427 21.9904C58.9433 22.3589 59.5376 23.4439 59.5376 24.0182C59.5376 24.5924 58.9433 25.6774 58.427 26.0459C57.9652 26.3755 57.8868 26.385 55.281 26.4274L52.6087 26.4711V24.0182V21.5653L55.281 21.6089C57.8868 21.6514 57.9652 21.6608 58.427 21.9904Z" fill="url(#paint0_linear_114_1090)"/>
<defs>
<linearGradient id="paint0_linear_114_1090" x1="0" y1="40.0001" x2="121" y2="40.0001" gradientUnits="userSpaceOnUse">
<stop stop-color="#70FF00"/>
<stop offset="1" stop-color="#D4FB50"/>
</linearGradient>
</defs>
</svg>
