<svg width="24" height="24" fill="none" xmlns="http://www.w3.org/2000/svg"><g clip-path="url(#a)"><path d="M23.66 14.36a.719.719 0 0 0-.861.078 9.316 9.316 0 0 1-6.27 2.422c-5.151 0-9.342-4.191-9.342-9.343 0-2.32.86-4.548 2.422-6.27A.719.719 0 0 0 8.88.075C3.65 1.554 0 6.389 0 11.829c0 6.737 5.48 12.217 12.217 12.217 5.44 0 10.275-3.651 11.756-8.88a.718.718 0 0 0-.313-.807Z" fill="url(#b)"/><path d="m11.9 9.53 1.703.851.85 1.703a.718.718 0 0 0 1.287 0l.851-1.703 1.702-.85a.719.719 0 0 0 0-1.286l-1.702-.85-.851-1.703c-.245-.487-1.043-.487-1.286 0l-.85 1.702-1.703.85a.718.718 0 0 0 0 1.287Z" fill="url(#c)"/><path d="M19.404 3.924h.718v.718a.718.718 0 1 0 1.438 0v-.718h.718a.718.718 0 1 0 0-1.437h-.718v-.72a.718.718 0 1 0-1.438 0v.72h-.718a.718.718 0 1 0 0 1.437Z" fill="url(#d)"/></g><defs><linearGradient id="b" x1="-.171" y1="12.046" x2="24" y2="12.046" gradientUnits="userSpaceOnUse"><stop stop-color="#28B800"/><stop offset="1" stop-color="#F5E30C"/></linearGradient><linearGradient id="c" x1="11.452" y1="8.904" x2="18.69" y2="8.904" gradientUnits="userSpaceOnUse"><stop stop-color="#28B800"/><stop offset="1" stop-color="#F5E30C"/></linearGradient><linearGradient id="d" x1="18.654" y1="3.205" x2="22.997" y2="3.205" gradientUnits="userSpaceOnUse"><stop stop-color="#28B800"/><stop offset="1" stop-color="#F5E30C"/></linearGradient><clipPath id="a"><path fill="#fff" d="M0 0h24v24H0z"/></clipPath></defs></svg>