<svg width="180" height="38" viewBox="0 0 180 38" fill="none" xmlns="http://www.w3.org/2000/svg"><path d="M0 0h161c10.493 0 19 8.507 19 19s-8.507 19-19 19H0l10.5-19L0 0Z" fill="#FBDE04"/><g clip-path="url(#a)"><path d="M35.86 15.079c-.396-.433-1.012-1.016-1.274.301-.089.448-.297.794-.475 1.072-.192-.973-.77-1.98-1.315-2.659-.204-.254-.928-1.263-1.066-2.952a.304.304 0 0 0-.508-.2c-1.79 1.624-2.772 3.859-2.809 6.374 0 0-.745-.628-1.15-1.796-.109-.315-.531-.375-.714-.097a2.74 2.74 0 0 0-.097.159c-1.381 2.442-2.045 5.407-1.431 8.166 1.027 4.62 7.819 5.911 11.415 3.008 3.518-2.841 2.4-8.129-.576-11.376Z" fill="#ED694A"/><path d="M25.977 23.737c-.607-2.788.036-5.782 1.384-8.262a4.642 4.642 0 0 1-.097-.256c-.11-.315-.531-.375-.714-.097a2.869 2.869 0 0 0-.097.159c-1.381 2.442-2.045 5.407-1.431 8.166.468 2.107 2.136 3.521 4.153 4.162-1.573-.763-2.806-2.07-3.198-3.872ZM29.375 16.97c.074-2.284.9-4.331 2.378-5.904a6.426 6.426 0 0 1-.023-.223c-.02-.254-.31-.382-.496-.213-1.728 1.563-2.782 3.775-2.82 6.385l.324.252c.159.123.375.118.527.005.09-.077.104-.193.11-.303Z" fill="#D8553A"/><path d="M34.774 18.456c-.292-.32-.747-.75-.94.223-.066.33-.22.586-.352.791-.141-.718-.569-1.462-.97-1.963-.151-.188-.686-.934-.788-2.181a.224.224 0 0 0-.375-.148c-1.322 1.2-2.048 2.85-2.075 4.709 0 0-.55-.465-.85-1.328-.08-.232-.392-.277-.527-.07-.026.038-.05.078-.072.116-1.02 1.804-1.51 3.994-1.057 6.032.759 3.412 5.776 4.366 8.432 2.221 2.598-2.098 1.772-6.003-.426-8.402Z" fill="#F4A32C"/><path d="M27.714 24.904c-.401-1.991.015-4.129.896-5.908a3.42 3.42 0 0 1-.186-.437c-.08-.232-.392-.277-.527-.07a2.06 2.06 0 0 0-.072.116c-1.02 1.804-1.51 3.994-1.057 6.032.353 1.587 1.627 2.642 3.156 3.101-1.086-.545-1.942-1.502-2.21-2.834Z" fill="#E89528"/><path d="M33.783 21.54c-.197-.217-.505-.508-.636.15a1.528 1.528 0 0 1-.238.536c-.096-.486-.385-.99-.658-1.33-.102-.126-.463-.631-.533-1.476a.152.152 0 0 0-.253-.1c-.895.813-1.387 1.93-1.405 3.188 0 0-.373-.314-.575-.899-.055-.157-.265-.187-.357-.048a1.37 1.37 0 0 0-.049.08c-.69 1.22-1.022 2.703-.715 4.082.513 2.31 3.91 2.956 5.707 1.504a2.892 2.892 0 0 0 1.075-1.972c.117-1.174-.335-2.594-1.363-3.715Z" fill="#F4D44E"/><path d="M32.864 24.4c-.11-.12-.282-.282-.355.085a.85.85 0 0 1-.133.298 1.851 1.851 0 0 0-.366-.74c-.057-.071-.258-.352-.297-.823a.085.085 0 0 0-.141-.056c-.499.453-.773 1.075-.783 1.776 0 0-.207-.175-.32-.5-.03-.088-.148-.105-.2-.027a.836.836 0 0 0-.026.044c-.385.68-.57 1.506-.399 2.275.39 1.752 3.583 1.7 3.779-.262.065-.653-.187-1.445-.76-2.07Z" fill="#EAE9E8"/><path d="M30.586 27.08c-.171-.688.014-1.427.398-2.035a.667.667 0 0 1 .027-.04c.051-.07.169-.054.2.024.112.291.32.448.32.448a2.03 2.03 0 0 1 .537-1.358c-.076-.106-.31-.362-.355-.899a.085.085 0 0 0-.141-.056c-.499.453-.773 1.075-.783 1.776 0 0-.207-.175-.32-.5-.03-.088-.148-.105-.2-.027a.836.836 0 0 0-.026.044c-.385.68-.57 1.506-.399 2.275.159.712.809 1.14 1.528 1.243-.388-.19-.686-.492-.786-.896Z" fill="#F7E7A1"/><path d="M28.85 11.525c.803-.653.8-1.874 0-2.525a1.626 1.626 0 0 0 0 2.525ZM38.469 16.764c.802-.653.8-1.874 0-2.525-.367.298-.801 1.873 0 2.525ZM24.256 17.26c.578-.47.577-1.35 0-1.82-.265.216-.578 1.351 0 1.82ZM34.272 13.345c.578-.47.577-1.35 0-1.82a1.172 1.172 0 0 0 0 1.82Z" fill="#D8553A"/><path d="M30.012 19.588c.133-1.568.732-2.962 1.737-4.025a4.72 4.72 0 0 1-.025-.237.224.224 0 0 0-.375-.148 6.252 6.252 0 0 0-1.968 3.58 7.093 7.093 0 0 0-.107 1.128c.028.006.662.332.738-.298Z" fill="#E89528"/><path d="M29.29 26.051c-.274-1.288-.041-2.663.499-3.853a2.327 2.327 0 0 1-.304-.589c-.055-.157-.265-.187-.357-.048a1.463 1.463 0 0 0-.049.08c-.69 1.22-1.022 2.703-.715 4.082.24 1.082 1.113 1.799 2.158 2.106-.608-.403-1.068-1-1.233-1.778ZM31.046 21.945a4.63 4.63 0 0 1 .771-1.955 3.188 3.188 0 0 1-.098-.57.152.152 0 0 0-.254-.1 4.21 4.21 0 0 0-1.185 1.834h-.001a4.72 4.72 0 0 0-.218 1.354c.5.062.914-.062.985-.563Z" fill="#E8C842"/></g><path d="M53.81 19.072c0-.97.21-1.834.63-2.59a4.456 4.456 0 0 1 1.75-1.778c.756-.43 1.61-.644 2.562-.644 1.166 0 2.165.308 2.996.924.83.616 1.386 1.456 1.666 2.52h-2.632a2.112 2.112 0 0 0-.84-.938 2.305 2.305 0 0 0-1.218-.322c-.738 0-1.335.257-1.792.77-.458.513-.686 1.2-.686 2.058 0 .859.228 1.545.686 2.058.457.513 1.054.77 1.792.77.457 0 .863-.107 1.218-.322.364-.215.644-.527.84-.938h2.632c-.28 1.064-.836 1.904-1.666 2.52-.831.607-1.83.91-2.996.91-.952 0-1.806-.21-2.562-.63a4.577 4.577 0 0 1-1.75-1.778c-.42-.756-.63-1.62-.63-2.59Zm14.626 5.04c-.766 0-1.456-.163-2.072-.49a3.648 3.648 0 0 1-1.442-1.4c-.346-.607-.518-1.316-.518-2.128 0-.803.177-1.507.532-2.114a3.598 3.598 0 0 1 1.456-1.414c.616-.327 1.306-.49 2.072-.49.765 0 1.456.163 2.072.49a3.597 3.597 0 0 1 1.456 1.414c.354.607.532 1.311.532 2.114 0 .803-.182 1.512-.546 2.128a3.6 3.6 0 0 1-1.47 1.4c-.616.327-1.307.49-2.072.49Zm0-2.072c.457 0 .844-.168 1.162-.504.326-.336.49-.817.49-1.442s-.159-1.106-.476-1.442a1.494 1.494 0 0 0-1.148-.504 1.51 1.51 0 0 0-1.162.504c-.308.327-.462.807-.462 1.442 0 .625.15 1.106.448 1.442.308.336.69.504 1.148.504Zm15.326-5.936c.97 0 1.74.294 2.31.882.578.588.868 1.405.868 2.45V24h-2.38v-4.242c0-.504-.136-.891-.406-1.162-.262-.28-.626-.42-1.092-.42-.467 0-.836.14-1.106.42-.262.27-.392.658-.392 1.162V24h-2.38v-4.242c0-.504-.136-.891-.406-1.162-.262-.28-.626-.42-1.092-.42-.467 0-.836.14-1.106.42-.262.27-.392.658-.392 1.162V24h-2.394v-7.812h2.394v.98c.242-.327.56-.583.952-.77a2.933 2.933 0 0 1 1.33-.294c.588 0 1.11.126 1.568.378.466.252.83.611 1.092 1.078.27-.43.64-.78 1.106-1.05.466-.27.975-.406 1.526-.406Zm6.056-.728c-.42 0-.765-.121-1.036-.364a1.235 1.235 0 0 1-.392-.924c0-.373.13-.681.392-.924.27-.252.616-.378 1.036-.378.41 0 .747.126 1.008.378.27.243.406.55.406.924 0 .364-.135.672-.406.924-.261.243-.597.364-1.008.364Zm1.19.812V24h-2.394v-7.812h2.394Zm6.495-.084c.915 0 1.643.299 2.184.896.551.588.826 1.4.826 2.436V24h-2.38v-4.242c0-.523-.135-.929-.406-1.218-.27-.29-.635-.434-1.092-.434-.457 0-.821.145-1.092.434-.27.29-.406.695-.406 1.218V24h-2.394v-7.812h2.394v1.036c.243-.345.57-.616.98-.812.41-.205.873-.308 1.386-.308Zm7.642-.028c.55 0 1.031.112 1.442.336.42.224.742.518.966.882v-1.106h2.394v7.798c0 .719-.145 1.367-.434 1.946a3.19 3.19 0 0 1-1.302 1.4c-.579.345-1.302.518-2.17.518-1.158 0-2.096-.275-2.814-.826-.719-.541-1.13-1.279-1.232-2.212h2.366c.074.299.252.532.532.7.28.177.625.266 1.036.266.494 0 .886-.145 1.176-.434.298-.28.448-.733.448-1.358V22.88a2.724 2.724 0 0 1-.966.896c-.411.224-.892.336-1.442.336a3.233 3.233 0 0 1-1.75-.49c-.523-.336-.938-.807-1.246-1.414-.299-.616-.448-1.325-.448-2.128 0-.803.149-1.507.448-2.114.308-.607.723-1.073 1.246-1.4a3.233 3.233 0 0 1 1.75-.49Zm2.408 4.018c0-.597-.168-1.069-.504-1.414a1.593 1.593 0 0 0-1.204-.518c-.476 0-.882.173-1.218.518-.327.336-.49.803-.49 1.4 0 .597.163 1.073.49 1.428.336.345.742.518 1.218.518s.877-.173 1.204-.518c.336-.345.504-.817.504-1.414Zm10.648 4.004c-.718 0-1.362-.117-1.932-.35a3.204 3.204 0 0 1-1.372-1.036c-.336-.457-.513-1.008-.532-1.652h2.548c.038.364.164.644.378.84.215.187.495.28.84.28.355 0 .635-.08.84-.238.206-.168.308-.397.308-.686a.793.793 0 0 0-.252-.602 1.858 1.858 0 0 0-.602-.392 9.048 9.048 0 0 0-1.008-.35 11.116 11.116 0 0 1-1.554-.588 2.88 2.88 0 0 1-1.036-.868c-.289-.383-.434-.882-.434-1.498 0-.915.332-1.629.994-2.142.663-.523 1.526-.784 2.59-.784 1.083 0 1.956.261 2.618.784.663.513 1.018 1.232 1.064 2.156h-2.59c-.018-.317-.135-.565-.35-.742-.214-.187-.49-.28-.826-.28-.289 0-.522.08-.7.238-.177.15-.266.369-.266.658 0 .317.15.565.448.742.299.177.766.369 1.4.574.635.215 1.148.42 1.54.616.402.196.747.48 1.036.854.29.373.434.854.434 1.442a2.79 2.79 0 0 1-.434 1.526c-.28.457-.69.821-1.232 1.092-.541.27-1.18.406-1.918.406Zm8.614.014c-.766 0-1.456-.163-2.072-.49a3.64 3.64 0 0 1-1.442-1.4c-.346-.607-.518-1.316-.518-2.128 0-.803.177-1.507.532-2.114a3.593 3.593 0 0 1 1.456-1.414c.616-.327 1.306-.49 2.072-.49.765 0 1.456.163 2.072.49a3.6 3.6 0 0 1 1.456 1.414c.354.607.532 1.311.532 2.114 0 .803-.182 1.512-.546 2.128a3.604 3.604 0 0 1-1.47 1.4c-.616.327-1.307.49-2.072.49Zm0-2.072c.457 0 .844-.168 1.162-.504.326-.336.49-.817.49-1.442s-.159-1.106-.476-1.442a1.494 1.494 0 0 0-1.148-.504c-.467 0-.854.168-1.162.504-.308.327-.462.807-.462 1.442 0 .625.149 1.106.448 1.442.308.336.69.504 1.148.504Zm8.914 2.072c-.766 0-1.456-.163-2.072-.49a3.64 3.64 0 0 1-1.442-1.4c-.346-.607-.518-1.316-.518-2.128 0-.803.177-1.507.532-2.114a3.593 3.593 0 0 1 1.456-1.414c.616-.327 1.306-.49 2.072-.49.765 0 1.456.163 2.072.49a3.6 3.6 0 0 1 1.456 1.414c.354.607.532 1.311.532 2.114 0 .803-.182 1.512-.546 2.128a3.604 3.604 0 0 1-1.47 1.4c-.616.327-1.307.49-2.072.49Zm0-2.072c.457 0 .844-.168 1.162-.504.326-.336.49-.817.49-1.442s-.159-1.106-.476-1.442a1.494 1.494 0 0 0-1.148-.504c-.467 0-.854.168-1.162.504-.308.327-.462.807-.462 1.442 0 .625.149 1.106.448 1.442.308.336.69.504 1.148.504Zm10.118-5.936c.914 0 1.642.299 2.184.896.55.588.826 1.4.826 2.436V24h-2.38v-4.242c0-.523-.136-.929-.406-1.218-.271-.29-.635-.434-1.092-.434-.458 0-.822.145-1.092.434-.271.29-.406.695-.406 1.218V24h-2.394v-7.812h2.394v1.036c.242-.345.569-.616.98-.812.41-.205.872-.308 1.386-.308Z" fill="#000"/><defs><clipPath id="a"><path fill="#fff" transform="translate(22 9)" d="M0 0h19v19H0z"/></clipPath></defs></svg>