<svg width="1027" height="404" fill="none" xmlns="http://www.w3.org/2000/svg"><path d="M814 .082a1.5 1.5 0 0 0 0 3v-3ZM136.061 393.779a1.502 1.502 0 0 0 0-2.122l-9.546-9.546a1.502 1.502 0 0 0-2.122 0 1.502 1.502 0 0 0 0 2.122l8.486 8.485-8.486 8.485a1.502 1.502 0 0 0 0 2.122 1.502 1.502 0 0 0 2.122 0l9.546-9.546ZM814 3.082h113.71v-3H814v3Zm113.71 191.58H100.278v3H927.71v-3ZM100.278 394.218H135v-3h-34.722v3ZM.5 294.44c0 55.106 44.672 99.778 99.778 99.778v-3c-53.45 0-96.778-43.329-96.778-96.778h-3Zm99.778-99.778C45.172 194.662.5 239.334.5 294.44h3c0-53.449 43.329-96.778 96.778-96.778v-3Zm923.222-95.79c0 52.904-42.887 95.79-95.79 95.79v3c54.56 0 98.79-44.23 98.79-98.79h-3Zm-95.79-95.79c52.903 0 95.79 42.887 95.79 95.79h3c0-54.56-44.23-98.79-98.79-98.79v3Z" fill="url(#a)"/><defs><linearGradient id="a" x1="-5.29" y1="197.15" x2="1025" y2="197.15" gradientUnits="userSpaceOnUse"><stop stop-color="#28B800"/><stop offset="1" stop-color="#F5E30C"/></linearGradient></defs></svg>